<?xml version="1.0" encoding="UTF-8" standalone="no"?>
<svg xmlns="http://www.w3.org/2000/svg" version="1.1" viewBox="0 0 256 256" width="256" height="256">
<path d="m31.297 22.16a9.1377 9.1377 0 0 0 -9.1368 9.1368v38.986a9.1377 9.1377 0 0 0 9.1368 9.1368h38.986a9.1377 9.1377 0 0 0 9.1368 -9.1368v-38.986a9.1377 9.1377 0 0 0 -9.137 -9.137h-38.986zm75.533 0a9.1377 9.1377 0 0 0 -9.1368 9.1368v38.986a9.1377 9.1377 0 0 0 9.1368 9.1368h42.34a9.1377 9.1377 0 0 0 9.1368 -9.1368v-38.986a9.1377 9.1377 0 0 0 -9.14 -9.137h-42.34zm78.887 0a9.1377 9.1377 0 0 0 -9.1368 9.1368v38.986a9.1377 9.1377 0 0 0 9.1368 9.1368h38.986a9.1377 9.1377 0 0 0 9.13 -9.137v-38.986a9.1377 9.1377 0 0 0 -9.14 -9.137h-38.986zm-154.42 75.533a9.1377 9.1377 0 0 0 -9.1368 9.1368v42.34a9.1377 9.1377 0 0 0 9.1368 9.1368h38.986a9.1377 9.1377 0 0 0 9.1368 -9.1368v-42.34a9.1377 9.1377 0 0 0 -9.1368 -9.1368h-38.986zm75.533 0a9.1377 9.1377 0 0 0 -9.1368 9.1368v42.34a9.1377 9.1377 0 0 0 9.1368 9.1368h42.34a9.1377 9.1377 0 0 0 9.1368 -9.1368v-42.34a9.1377 9.1377 0 0 0 -9.1368 -9.1368h-42.34zm78.887 0a9.1377 9.1377 0 0 0 -9.1368 9.1368v42.34a9.1377 9.1377 0 0 0 9.1368 9.1368h38.986a9.1377 9.1377 0 0 0 9.1368 -9.1368v-42.34a9.1377 9.1377 0 0 0 -9.1368 -9.1368h-38.986zm-154.42 78.887a9.1377 9.1377 0 0 0 -9.1368 9.1368v38.986a9.1377 9.1377 0 0 0 9.1368 9.1368h38.986a9.1377 9.1377 0 0 0 9.1368 -9.1368v-38.986a9.1377 9.1377 0 0 0 -9.1368 -9.1368h-38.986zm75.533 0a9.1377 9.1377 0 0 0 -9.1368 9.1368v38.986a9.1377 9.1377 0 0 0 9.1368 9.1368h42.34a9.1377 9.1377 0 0 0 9.1368 -9.1368v-38.986a9.1377 9.1377 0 0 0 -9.1368 -9.1368h-42.34zm78.887 0a9.1377 9.1377 0 0 0 -9.1368 9.1368v38.986a9.1377 9.1377 0 0 0 9.1368 9.1368h38.986a9.1377 9.1377 0 0 0 9.1368 -9.1368v-38.986a9.1377 9.1377 0 0 0 -9.1368 -9.1368h-38.986z" fill-rule="evenodd" fill="#72a7cf"/>
</svg>
